<svg width="128" height="48" viewBox="0 0 128 48" fill="none" xmlns="http://www.w3.org/2000/svg">
<g style="mix-blend-mode:luminosity" clip-path="url(#clip0_909_231)">
<path fill-rule="evenodd" clip-rule="evenodd" d="M126.545 30.5633C121.29 38.4606 112.966 36.1691 110.467 34.3749C109.403 35.0147 107.537 36.417 105.05 36.255C99.7521 35.9104 97.855 29.2007 97.855 29.2007C97.893 29.2275 96.2769 29.6949 95.4035 29.6866C95.3922 31.6542 93.4731 36.3546 88.2938 36.2945C82.4819 36.2273 81.3003 28.5531 81.3003 28.5531C81.3003 28.5531 80.7219 29.2649 78.5228 29.9739C78.6335 28.4622 78.5526 36.0644 71.5867 36.1761C66.0798 36.2646 64.5932 28.4348 64.5932 28.4348C64.5932 28.4348 63.6379 29.3143 61.7865 29.6194C61.9041 28.0831 61.7128 36.2019 54.7461 36.1761C50.0381 36.1588 48.4293 31.353 48.5544 30.686C48.7141 29.8359 46.9632 36.2957 42.3901 36.195C40.5029 36.1459 39.096 34.9349 38.2131 33.3204C37.0312 34.5189 35.3153 36.195 33.3904 36.195C29.9351 36.195 28.4119 33.6337 28.6698 26.3179C28.6919 25.4502 28.6212 25.109 27.648 24.9792C27.0638 24.8928 26.4656 24.7292 25.8326 24.643C25.6297 25.243 23.909 35.9998 17.9922 36.204C16.0072 36.2725 14.9218 34.7485 14.0304 33.6174C12.664 35.2194 10.8603 36.255 8.2908 36.255C3.93821 36.255 0.972656 33.1365 0.972656 29.2895C0.972656 25.4425 3.93821 22.3242 8.2908 22.3242C9.06038 22.3242 9.27642 22.422 9.97948 22.6038C8.53361 10.9365 11.9482 9.11303 14.9352 9.11303C17.8029 9.11303 22.702 15.012 15.8085 29.9751C17.339 34.4381 20.6384 34.1857 22.2239 24.9982C22.5466 23.1307 21.6838 20.6105 23.0259 20.2588C25.4791 19.616 25.7395 21.5446 26.8897 21.866C28.106 22.2056 28.816 22.1724 29.9836 22.3885C31.9789 22.7339 32.7575 23.6838 32.5144 25.7996C32.2225 28.4767 31.7118 32.3732 33.2688 32.8481C34.3916 33.1931 36.4416 31.1293 36.8014 30.0001C37.161 28.871 37.2361 28.4845 37.268 27.6563C37.3167 25.8861 37.3778 24.5886 37.7183 23.2499C37.8641 22.7319 38.0303 22.3888 38.6915 22.3654C39.2357 22.3531 40.2307 22.2079 40.6687 22.51C41.2526 22.8988 41.1796 23.2933 41.1126 24.3316C40.4336 39.1353 45.6596 31.7452 47.2178 25.8279C46.6629 19.1369 47.0438 9.23555 51.7747 9.06949C54.2351 8.98313 55.3228 10.7301 55.4425 12.034C55.7809 15.7168 53.8853 21.8172 51.3923 25.9197C49.9674 34.2907 57.6219 35.9459 58.846 29.2642C56.8433 28.4202 54.6789 25.0044 56.4402 23.3397C57.4284 22.4055 61.5422 23.7476 61.6096 26.6748C63.6275 26.1965 63.8969 25.1867 63.9248 25.354C63.3701 18.663 63.8846 9.23564 68.6158 9.06957C71.0759 8.98321 72.1634 10.7301 72.2831 12.0341C72.6215 15.7168 70.7259 21.8173 68.2332 25.9199C66.8082 34.2907 74.4628 35.946 75.6866 29.2643C74.2039 29.0107 71.0739 25.3775 72.8798 23.3398C73.8449 22.2509 77.9436 24.5154 78.4025 26.7717C80.341 26.2855 80.6043 25.3078 80.6321 25.4724C80.0772 18.7816 80.5917 9.35422 85.3229 9.18815C87.783 9.10179 88.8705 10.8487 88.9902 12.1527C89.3286 15.8354 87.433 21.936 84.94 26.0385C83.5153 34.4095 91.1698 36.0644 92.3938 29.3827C90.3562 29.082 87.4604 25.2458 89.7911 23.2833C90.7223 22.4992 94.2804 24.5346 95.1132 26.8568C96.2705 26.8173 96.9908 26.4636 97.1452 26.4279C95.2978 18.573 96.6731 9.14836 101.763 9.06969C104.513 9.02721 107.203 10.3877 106.022 17.8606C104.895 24.9906 100.845 27.9827 100.855 28.0285C101.09 28.8827 103.169 36.0312 108.402 32.2594C108.131 31.7157 107.86 31.1603 107.709 30.4874C106.841 26.5677 108.545 22.1404 113.176 21.4249C115.829 21.0149 118.329 22.1598 118.724 24.741C119.374 28.9645 115.071 32.0233 113.435 32.6868C112.702 32.3178 120.078 36.5107 124.456 28.108C124.71 27.6282 125.016 27.6689 125.412 27.9162C125.692 28.0908 127.287 29.4299 126.545 30.5633ZM11.4569 28.2517C11.2342 27.6615 10.7771 26.361 10.6154 25.7976C9.72518 25.1114 9.08975 25 7.94705 25C5.40762 25 3.91296 27.0809 3.91296 29.3247C3.91296 31.5684 5.54128 33.6496 8.08073 33.6496C10.2815 33.6496 11.9564 32.3235 12.4674 30.4462C12.1097 29.7143 11.7549 29.0417 11.4569 28.2517ZM14.8729 12.2015C13.0886 12.2015 12.4833 15.974 12.6008 19.1924C12.7047 22.0378 13.6018 24.5428 14.0672 25.6653C14.1853 25.8059 14.1634 25.7144 14.2688 25.8636C17.367 19.8472 16.082 12.2015 14.8729 12.2015ZM52.0295 12.32C49.7234 12.0855 49.7382 20.6001 50.0245 22.51C51.2223 20.8118 53.3029 12.7772 52.0295 12.32ZM68.8702 12.32C66.564 12.0855 66.5789 20.6001 66.8653 22.51C68.0629 20.8118 70.1437 12.7772 68.8702 12.32ZM85.5774 12.4384C83.2711 12.204 83.2859 20.7186 83.5724 22.6287C84.77 20.9303 86.8508 12.8956 85.5774 12.4384ZM102.017 11.8215C98.4239 12.461 99.2606 23.0789 99.8064 24.9412C104.039 19.789 104.126 11.628 102.017 11.8215ZM115.483 25.0903C115.301 24.4133 114.387 24.0515 113.757 24.1407C111.953 24.359 110.203 26.3505 110.88 29.3824C111.031 30.0576 111.408 30.6792 111.402 30.6585C115.44 28.2577 115.783 26.3659 115.483 25.0903ZM39.3988 20.0218C38.8832 20.0219 38.3791 19.8864 37.9503 19.6326C37.5216 19.3787 37.1873 19.0179 36.9899 18.5957C36.7924 18.1735 36.7408 17.7089 36.8414 17.2607C36.9419 16.8124 37.1903 16.4007 37.5548 16.0775C37.9194 15.7543 38.3839 15.5342 38.8896 15.4451C39.3953 15.3559 39.9196 15.4016 40.396 15.5765C40.8725 15.7514 41.2795 16.0476 41.566 16.4276C41.8524 16.8076 42.0054 17.2544 42.0054 17.7114C42.0054 18.0148 41.938 18.3152 41.8069 18.5955C41.676 18.8758 41.4841 19.1305 41.242 19.345C40.9999 19.5596 40.7126 19.7298 40.3964 19.8459C40.0801 19.962 39.7412 20.0218 39.3988 20.0218Z" fill="#0D0C22"/>
</g>
<defs>
<clipPath id="clip0_909_231">
<rect width="126.369" height="48" fill="white" transform="translate(0.972656)"/>
</clipPath>
</defs>
</svg>
